#!OML:ASF E:/inclinewalkrobotboard/Project1/Captureday1/Session1/subject1.ASF
:FULLY-SPECIFIED
:DEGREES
351
root 0 0 0 1.5694474933885632 -3.61233046679655 3.056550335315301
lowerback 12.32835897315079 0.7427381966348853 -1.0362073161205485
upperback -4.032015344298528 0.8269552058994685 -0.7480393291511679
thorax -11.284948156193963 0.38963934235448405 -0.4186998549106155
lowerneck -7.118503925334719 1.4368025293772384 4.299157197901746
upperneck 19.537133887296385 2.932994585285857 -8.300791784350091
head 7.3035759328570355 1.0051442109932474 -3.2039592853576337
rclavicle -7.830164769338476E-16 -2.168667789443541E-15
rhumerus 15.97597124415413 11.362987725051608 -50.16530005958315
rradius 67.73296757740749
rwrist 25.124602021028085
rhand -32.905275730308176 -49.216403822385466
rfingers 7.125019999999963
rthumb -6.167689794980626 -79.34182643575538
lclavicle 2.4611698760389475E-16 -3.8269730961960267E-16
lhumerus 17.5855519382807 -13.04045586948692 49.15179707031963
lradius 66.90449678310047
lwrist -18.636265564657307
lhand -44.0084355310734 -61.23160559622783
lfingers 7.125019999999957
lthumb -16.846254559059055 -31.78961839547223
rfemur -35.98588446670959 -2.4666349698397942 14.503752443338275
rtibia 60.82540239857011
rfoot -11.972919437709654 -14.02404645745494
rtoes -8.40307448676211
lfemur -19.78389397801337 5.335483194210614 -15.701270457441955
ltibia 69.37105716806342
lfoot -9.479265305575671 -8.181991062030736
ltoes -12.389574435196835
352
root 0 0 0 1.6821899513053622 -3.616484874916527 2.9835374300280417
lowerback 12.344124849917884 0.7350934095658794 -0.9798337301334435
upperback -4.030060710925656 0.8260935649173675 -0.7231237917230126
thorax -11.287690515770175 0.38747205252423617 -0.42685200382582283
lowerneck -7.153334775370956 1.4498652287179274 4.304822832433888
upperneck 19.421984050927726 2.9539315414667433 -8.307628983821527
head 7.269635273038089 1.0149478958929374 -3.204320364287536
rclavicle -1.0000187051648876E-15 -2.1036757444801614E-15
rhumerus 16.377979809742442 11.894963144630589 -50.46533891284276
rradius 68.05576106020342
rwrist 24.782036804785918
rhand -32.92480598957818 -49.213625034556586
rfingers 7.125019999999964
rthumb -6.188351456478879 -79.3169528831762
lclavicle 2.4291663090962883E-16 -2.7047279711806863E-16
lhumerus 17.754599097985512 -13.378334348061204 49.260708206904155
lradius 67.1211849769864
lwrist -18.445206385808646
lhand -44.01972311170566 -60.976751014564066
lfingers 7.1250199999999575
lthumb -16.855995415889662 -31.539182723549533
rfemur -36.40887183291442 -2.142464730163937 14.769316460506545
rtibia 57.84178533098644
rfoot -14.999023778046931 -15.134902533590614
rtoes -9.26423573230639
lfemur -21.906600285006842 5.2723547941297175 -15.65878869100948
ltibia 67.58821190184804
lfoot -12.487596890655263 -5.9128364371565265
ltoes -11.714423617298452
353
root 0 0 0 1.919131088603958 -3.7053299500083607 2.8090819971700287
lowerback 12.307782620880474 0.7876412065160807 -0.8031706807269957
upperback -4.056952080824805 0.919229372464865 -0.7114941559435654
thorax -11.282082459764576 0.42741944515843566 -0.5310670457391349
lowerneck -7.142687834263055 1.4502586126412689 4.321292255386206
upperneck 19.27776015576678 2.9533802910769245 -8.302713296914803
head 7.218705954699918 1.017669158273855 -3.2036569646512003
rclavicle -1.2391404639211765E-15 -1.92685158186785E-15
rhumerus 16.874861025547723 12.541405435346336 -50.8197374385083
rradius 68.45484069050724
rwrist 24.375889235469117
rhand -32.95200429959527 -49.22579511317982
rfingers 7.125019999999964
rthumb -6.2166348806969065 -79.30841034168347
lclavicle 3.036795720513261E-16 -5.641170511112985E-17
lhumerus 17.923312126704722 -13.697300352221644 49.35590035657559
lradius 67.33035783249484
lwrist -18.271207705696494
lhand -44.031435790977994 -60.74396706353717
lfingers 7.1250199999999575
lthumb -16.865041712222013 -31.310522202560964
rfemur -35.42599866165274 -1.5851795300960028 15.46006285152221
rtibia 53.81579046824301
rfoot -18.851660406495945 -16.19640354801997
rtoes -11.098663801793833
lfemur -23.816364907435414 4.771244239889375 -15.569173441097437
ltibia 62.70404964716838
lfoot -16.822139312750597 -2.705706427085125
ltoes -12.158098890559632
354
root 0 0 0 2.2174757667922043 -3.8654508138328465 2.5781057966023577
lowerback 12.226259199697367 0.8895285104135477 -0.5561531564027403
upperback -4.101740372787268 1.0856056888601793 -0.7172001379670582
thorax -11.264108897103414 0.5007977567115819 -0.7033036196874785
lowerneck -7.094140806039764 1.4309798772734974 4.33229442654387
upperneck 19.12971271784861 2.920194153769067 -8.266300846854655
head 7.160825913782107 1.0089030660612415 -3.1941746566706923
rclavicle -1.4367573709494312E-15 -1.6825602973964322E-15
rhumerus 17.36816717061447 13.188936952821402 -51.18470297348533
rradius 68.85202590735338
rwrist 23.960846883520592
rhand -32.97597175927045 -49.223800109433775
rfingers 7.125019999999964
rthumb -6.241902847826779 -79.28941274473738
lclavicle 4.0809812815270727E-16 2.1633059363654474E-16
lhumerus 18.039264813034045 -13.931394726469764 49.429980275438524
lradius 67.47826530342509
lwrist -18.140436324049595
lhand -44.03423226084554 -60.55065714507315
lfingers 7.1250199999999575
lthumb -16.86544917932777 -31.118958168263138
rfemur -32.7105288873734 -0.8310503763427226 16.733312703072503
rtibia 49.047341890557846
rfoot -23.379563124675208 -17.00336688973274
rtoes -13.67732114853988
lfemur -25.074340955335998 3.852113452111367 -15.604407647267825
ltibia 54.217958913217245
lfoot -22.32736969270437 1.4107524245260992
ltoes -13.516182645148128
355
root 0 0 0 2.5100234886114285 -4.056174400390995 2.3692775586830703
lowerback 12.111332213709906 1.0123899256266686 -0.326493263723857
upperback -4.147243801417149 1.275590224881355 -0.7412056145529956
thorax -11.226659526792792 0.5863110664344187 -0.886321939067237
lowerneck -7.036814603263258 1.3943520296411822 4.322536615698344
upperneck 18.999391816640976 2.8598893880393295 -8.188830146997743
head 7.108193787211207 0.9897861972756002 -3.1703374234731587
rclavicle -1.5218962745300168E-15 -1.3848496211063298E-15
rhumerus 17.77823829601349 13.749323499758903 -51.531708376363866
rradius 69.1827601625973
rwrist 23.574304137766525
rhand -32.986333434493865 -49.17493647665864
rfingers 7.125019999999964
rthumb -6.253678439928752 -79.22733011463978
lclavicle 5.726409607835816E-16 5.263575134433795E-16
lhumerus 18.06264409218724 -14.047109702965159 49.48982369708878
lradius 67.52859537674318
lwrist -18.05659406695552
lhand -44.018428225987535 -60.38010149147124
lfingers 7.1250199999999575
lthumb -16.848734444887484 -30.94677384237877
rfemur -29.087260299768833 0.12357095286557884 18.343851066683346
rtibia 43.28062749529456
rfoot -27.709792646233613 -17.406426840471973
rtoes -16.540031415326613
lfemur -25.128297928439 2.7022028966358516 -15.738314987432688
ltibia 44.68692235562171
lfoot -27.623969790049017 5.1895862529581445
ltoes -15.733246950349692
